<svg xmlns="http://www.w3.org/2000/svg" width="166" height="166">
    <!-- Path 1 escalado y centrado -->
    <g transform="translate(23,10) scale(1.7)">
        <path fill-rule="evenodd" clip-rule="evenodd"
            d="M 37.5 37 h -5.9 q -3.8 0 -5.4 -1.9 q -1.7 -2 -1.7 -5.1 q 0 -7 10.5 -7 q 9.9 0 14.8 2.9 l -2.8 2.1 q -3.4 -1.6 -12 -1.6 q -4.2 0 -5.7 0.9 q -1.4 0.9 -1.4 2.6 q 0 1.7 0.8 2.6 q 0.8 0.9 2.9 0.9 h 6 q 6.6 0 11.9 2.2 q 5.3 2.2 8.7 6.1 q 3.4 3.9 5.2 8.9 q 1.8 5 1.8 10.8 q 0 4.7 -1.3 8.9 t -4 7.7 q -2.6 3.5 -6.4 6.1 q -3.7 2.5 -8.9 4 q -5.1 1.5 -11.1 1.5 q -9.4 0 -17.7 -2.9 q -8.2 -2.8 -13.7 -8 l 2.8 -2.1 q 5 4.5 12.4 7 q 7.5 2.4 16 2.4 q 6.7 0 12 -1.9 q 5.4 -2 8.9 -5.3 q 3.5 -3.4 5.4 -7.8 q 1.9 -4.4 1.9 -9.6 q 0 -6.8 -2.7 -12.2 q -2.7 -5.5 -8.3 -8.9 q -5.6 -3.4 -13.2 -3.4 z m -5.9 3.5 h 5.6 q 9.9 0 15.5 6 q 5.6 6 5.6 15 q 0 9.1 -6.5 15.1 q -6.5 6 -18.2 6 q -7.8 0 -14.6 -2.1 q -6.8 -2.1 -11.3 -6 l 2.7 -2.2 q 4 3.3 10.1 5.1 q 6.1 1.8 13.1 1.8 q 10.3 0 15.7 -4.9 q 5.5 -4.9 5.5 -12.6 q 0 -7.6 -4.6 -12.6 q -4.5 -5 -13 -5 h -5.5 q -7.1 0 -10.7 -3.9 q -3.6 -3.9 -3.6 -10.1 q 0 -6.2 4.4 -10.1 q 4.4 -3.9 13.3 -3.9 q 6.2 0 11.5 1.5 q 5.3 1.4 8.8 4.1 l -2.8 2.1 q -6.1 -4.2 -17.5 -4.2 q -7.4 0 -10.8 2.9 q -3.4 2.9 -3.4 7.6 q 0 4.8 2.5 7.7 q 2.5 2.9 8.2 2.9 z m 0 7 h 5.4 q 7.1 0 10.7 4 q 3.6 4 3.6 10.1 q 0 6.2 -4.4 10.1 q -4.4 3.9 -13.2 3.9 q -6.2 0 -11.6 -1.4 q -5.3 -1.5 -8.8 -4.1 l 2.8 -2.1 q 6.1 4.2 17.6 4.2 q 7.4 0 10.7 -2.9 q 3.4 -2.9 3.4 -7.7 q 0 -4.7 -2.5 -7.6 q -2.5 -2.9 -8.2 -2.9 h -5.3 q -10 0 -15.7 -6 q -5.6 -6 -5.6 -15.1 t 6.5 -15.1 q 6.5 -6 18.2 -6 q 7.8 0 14.5 2.1 q 6.8 2.1 11.3 6 l -2.7 2.2 q -4 -3.3 -10 -5.1 q -6 -1.8 -13 -1.8 q -10.3 0 -15.8 4.9 q -5.4 4.9 -5.4 12.6 q 0 7.7 4.6 12.6 q 4.6 4.9 13.2 4.9 z m 0 7 h 5.4 q 3.8 0 5.4 2 q 1.7 1.9 1.7 5.1 q 0 7 -10.5 7 q -9.9 0 -14.9 -2.9 l 2.8 -2.1 q 3.4 1.6 12 1.6 q 4.2 0 5.6 -0.9 q 1.5 -0.9 1.5 -2.6 q 0 -1.6 -0.8 -2.5 q -0.8 -1 -2.9 -1 h -5.3 q -6.7 0 -12.2 -2.2 q -5.4 -2.2 -8.9 -6 q -3.5 -3.9 -5.3 -8.9 q -1.9 -5.1 -1.9 -10.9 q 0 -4.7 1.3 -8.9 t 4 -7.7 q 2.7 -3.5 6.4 -6 q 3.8 -2.6 8.9 -4 q 5.2 -1.5 11.2 -1.5 q 9.4 0 17.6 2.9 q 8.2 2.8 13.7 8 l -2.8 2.1 q -5 -4.5 -12.4 -6.9 q -7.5 -2.5 -16 -2.5 q -6.7 0 -12.1 2 q -5.4 1.9 -8.9 5.3 q -3.5 3.4 -5.4 7.8 q -1.9 4.4 -1.9 9.6 q 0 6.9 2.8 12.4 q 2.8 5.5 8.5 8.9 q 5.7 3.3 13.5 3.3 z"
            fill="#315394" />
    </g>
</svg>
